<svg xmlns="http://www.w3.org/2000/svg" viewBox="0 0 256 138">
  <path fill="#777BB4" d="M128 0C57.3 0 0 30.9 0 69s57.3 69 128 69 128-30.9 128-69-57.3-69-128-69zm-75.1 98.7H36.3l14.4-60.8h21.1c11.8 0 19.3 6.3 17.5 17.5-1.9 11.8-11.8 43.3-36.4 43.3zm67.8 0H104l7.1-30.3h13.9c10.4 0 16.5-5.3 17.6-13.6.8-6.1-2.9-10.9-10.7-10.9h-19l-4.5 19H92l10.9-45.7h21.1c16.3 0 26.6 9.4 24.3 22.8-2 11.2-10.7 20.3-21.4 22.6l-6.2 36.1zm74.7 0h-16.6l14.4-60.8h21.1c11.8 0 19.3 6.3 17.5 17.5-1.9 11.8-11.8 43.3-36.4 43.3z"/>
</svg>
